<svg width="60" height="60" fill="none" xmlns="http://www.w3.org/2000/svg"><path d="M30 0a30 30 0 1 0 0 60 30 30 0 0 0 0-60Zm17.29 41.74c-.872.124-5.14 0-5.362 0a4.19 4.19 0 0 1-2.962-1.172c-.9-.87-1.705-1.824-2.584-2.727a6.893 6.893 0 0 0-.842-.764c-.703-.538-1.398-.42-1.729.413a16.151 16.151 0 0 0-.538 2.737c-.058.839-.59 1.364-1.53 1.422a21.62 21.62 0 0 1-1.743.027 13.244 13.244 0 0 1-6.03-1.49 16.414 16.414 0 0 1-5.159-4.507c-2.273-2.904-4.09-6.095-5.713-9.385-.086-.167-1.75-3.705-1.79-3.872-.15-.556 0-1.091.46-1.279.293-.112 5.775 0 5.867 0a1.922 1.922 0 0 1 1.841 1.326 28.64 28.64 0 0 0 4.118 7.22c.24.293.522.549.836.761.446.307.869.201 1.053-.317a8.958 8.958 0 0 0 .382-2.199c.03-1.48 0-2.451-.082-3.93-.055-.948-.389-1.777-1.786-2.046-.43-.078-.467-.433-.191-.787.576-.733 1.363-.853 2.246-.897 1.316-.075 2.632-.024 3.948 0h.286a8.148 8.148 0 0 1 1.705.174 1.572 1.572 0 0 1 1.251 1.4c.068.374.096.754.085 1.133-.034 1.612-.112 3.228-.13 4.84-.015.64.043 1.28.175 1.906.187.86.777 1.074 1.363.454.76-.8 1.457-1.659 2.083-2.567a25.833 25.833 0 0 0 2.727-5.302c.382-.957.682-1.169 1.705-1.169h5.816c.346-.006.69.04 1.023.136a.884.884 0 0 1 .61 1.143c-.286 1.275-.975 2.362-1.705 3.409-1.183 1.674-2.43 3.306-3.64 4.96a6.723 6.723 0 0 0-.4.665c-.456.825-.422 1.285.24 1.967 1.056 1.087 2.184 2.103 3.204 3.221a19.06 19.06 0 0 1 2.018 2.622c.726 1.173.266 2.277-1.125 2.475Z" fill="#70F"/></svg>