<svg width="60" height="60" fill="none" xmlns="http://www.w3.org/2000/svg"><path d="M30 0a30 30 0 1 0 0 60 30 30 0 0 0 0-60Zm14.957 38.968a3.86 3.86 0 0 1-.758 1.58 10.501 10.501 0 0 1-3.806 3.209 4.674 4.674 0 0 1-2.155.5 8.25 8.25 0 0 1-2.735-.595 31.573 31.573 0 0 1-5.823-2.878 35.487 35.487 0 0 1-6.465-4.958 35.13 35.13 0 0 1-7.264-10.2 18.34 18.34 0 0 1-.761-2.072 4.014 4.014 0 0 1 .252-3.028 8.587 8.587 0 0 1 2.408-2.984 8.781 8.781 0 0 1 1.91-1.358c.4-.19.82-.336 1.252-.434.584-.114 1.085.185 1.579.482a7.15 7.15 0 0 1 1.883 1.855 21.032 21.032 0 0 1 2.329 3.908c.081.176.15.358.205.544a1.093 1.093 0 0 1-.26 1.114 2.887 2.887 0 0 1-.545.457c-.666.442-1.378.81-2.124 1.094-.276.103-.54.225-.79.351a1.784 1.784 0 0 0-.852 2.321 13.115 13.115 0 0 0 2.131 3.186 26.792 26.792 0 0 0 7.485 6.043 1.974 1.974 0 0 0 2.494-.501 2.82 2.82 0 0 0 .395-.533c.426-.762.837-1.535 1.263-2.297.124-.219.268-.425.43-.616a1.5 1.5 0 0 1 1.765-.351c.95.477 1.858 1.036 2.712 1.67a23.04 23.04 0 0 1 3.099 2.55c.153.156.297.321.434.493a1.611 1.611 0 0 1 .304 1.448h.008Z" fill="#70F"/></svg>