<svg width="144" height="144" fill="none" xmlns="http://www.w3.org/2000/svg"><g clip-path="url(#a)"><g clip-path="url(#b)"><path d="M133.794 20.25c-6.804-6.643-16.205-9.964-28.206-9.964-3.321 0-6.71.576-10.165 1.727a41.081 41.081 0 0 0-9.642 4.662c-2.974 1.954-5.53 3.79-7.675 5.504A74.248 74.248 0 0 0 72 27.643a74.356 74.356 0 0 0-6.107-5.464c-2.144-1.714-4.701-3.549-7.675-5.504a41.142 41.142 0 0 0-9.643-4.662c-3.455-1.15-6.844-1.727-10.165-1.727-12 0-21.401 3.322-28.205 9.965C3.402 26.893 0 36.107 0 47.893c0 3.59.63 7.286 1.889 11.088 1.258 3.804 2.692 7.046 4.3 9.724a71.105 71.105 0 0 0 5.463 7.835c2.036 2.544 3.524 4.297 4.46 5.262.937.964 1.674 1.66 2.21 2.089l50.142 48.375c.965.965 2.143 1.448 3.536 1.448 1.392 0 2.572-.483 3.535-1.446l50.063-48.215c12.268-12.267 18.401-24.32 18.401-36.16.001-11.786-3.402-21-10.205-27.642Z" fill="#A059F1"/></g></g><defs><clipPath id="a"><path fill="#fff" d="M0 0h144v144H0z"/></clipPath><clipPath id="b"><path fill="#fff" d="M0 0h144v144H0z"/></clipPath></defs></svg>