<svg width="40" height="40" fill="none" xmlns="http://www.w3.org/2000/svg"><path d="M20 0a20 20 0 1 0 0 40 20 20 0 0 0 0-40Zm11.527 27.827c-.582.082-3.427 0-3.575 0a2.794 2.794 0 0 1-1.975-.782c-.6-.58-1.136-1.216-1.722-1.818a4.59 4.59 0 0 0-.562-.509c-.468-.359-.932-.28-1.152.275a10.764 10.764 0 0 0-.36 1.825c-.038.56-.392.91-1.02.948-.388.02-.777.03-1.161.018a8.83 8.83 0 0 1-4.02-.993 10.944 10.944 0 0 1-3.44-3.005c-1.515-1.936-2.726-4.063-3.808-6.257-.057-.11-1.166-2.47-1.193-2.581-.1-.37 0-.728.306-.853.196-.075 3.85 0 3.912 0a1.282 1.282 0 0 1 1.227.884 19.092 19.092 0 0 0 2.746 4.814c.16.195.347.366.556.507.298.204.58.134.703-.211.145-.476.23-.969.254-1.466.02-.987 0-1.634-.054-2.62-.037-.633-.26-1.185-1.191-1.364-.287-.053-.312-.289-.127-.525.384-.489.909-.569 1.497-.598.878-.05 1.755-.016 2.632 0h.19c.383-.002.764.037 1.137.116a1.047 1.047 0 0 1 .834.934c.045.249.064.502.057.754-.023 1.075-.075 2.153-.086 3.228-.01.426.028.853.116 1.27.125.573.518.716.909.302.506-.533.97-1.105 1.389-1.71.74-1.105 1.35-2.29 1.818-3.535.254-.639.454-.78 1.136-.78h3.877c.23-.004.46.027.682.091a.588.588 0 0 1 .407.762c-.191.85-.65 1.575-1.136 2.273-.79 1.115-1.62 2.204-2.428 3.306-.097.143-.186.29-.266.443-.304.55-.281.857.16 1.312.704.725 1.456 1.402 2.136 2.148a12.68 12.68 0 0 1 1.345 1.747c.484.782.178 1.518-.75 1.65Z" fill="#70F"/></svg>