<svg width="35" height="35" viewBox="0 0 35 35" fill="none" xmlns="http://www.w3.org/2000/svg">
<path d="M19.6523 17.5L34.5153 2.63698C34.6649 2.49757 34.7849 2.32944 34.8682 2.14264C34.9514 1.95584 34.9962 1.75419 34.9998 1.54972C35.0034 1.34524 34.9658 1.14214 34.8892 0.952514C34.8126 0.762892 34.6986 0.59064 34.554 0.446033C34.4094 0.301426 34.2371 0.187426 34.0475 0.110835C33.8579 0.0342434 33.6548 -0.00337071 33.4503 0.000236996C33.2458 0.0038447 33.0442 0.0486003 32.8574 0.131833C32.6706 0.215066 32.5024 0.335071 32.363 0.484689L17.5 15.3477L2.63698 0.484689C2.3483 0.215693 1.96648 0.06925 1.57196 0.0762108C1.17744 0.0831717 0.801018 0.242993 0.522006 0.522006C0.242993 0.801018 0.0831717 1.17744 0.0762108 1.57196C0.06925 1.96648 0.215693 2.3483 0.484689 2.63698L15.3477 17.5L0.484689 32.363C0.335071 32.5024 0.215066 32.6706 0.131833 32.8574C0.0486003 33.0442 0.0038447 33.2458 0.000236996 33.4503C-0.00337071 33.6548 0.0342434 33.8579 0.110835 34.0475C0.187426 34.2371 0.301426 34.4094 0.446033 34.554C0.59064 34.6986 0.762892 34.8126 0.952514 34.8892C1.14214 34.9658 1.34524 35.0034 1.54972 34.9998C1.75419 34.9962 1.95584 34.9514 2.14264 34.8682C2.32944 34.7849 2.49757 34.6649 2.63698 34.5153L17.5 19.6523L32.363 34.5153C32.5024 34.6649 32.6706 34.7849 32.8574 34.8682C33.0442 34.9514 33.2458 34.9962 33.4503 34.9998C33.6548 35.0034 33.8579 34.9658 34.0475 34.8892C34.2371 34.8126 34.4094 34.6986 34.554 34.554C34.6986 34.4094 34.8126 34.2371 34.8892 34.0475C34.9658 33.8579 35.0034 33.6548 34.9998 33.4503C34.9962 33.2458 34.9514 33.0442 34.8682 32.8574C34.7849 32.6706 34.6649 32.5024 34.5153 32.363L19.6523 17.5Z" fill="#363435"/>
</svg>
