<svg width="60" height="60" viewBox="0 0 60 60" fill="none" xmlns="http://www.w3.org/2000/svg">
<path d="M30 0C22.0435 0 14.4129 3.16071 8.7868 8.7868C3.16071 14.4129 0 22.0435 0 30C0 37.9565 3.16071 45.5871 8.7868 51.2132C14.4129 56.8393 22.0435 60 30 60C37.9565 60 45.5871 56.8393 51.2132 51.2132C56.8393 45.5871 60 37.9565 60 30C60 22.0435 56.8393 14.4129 51.2132 8.7868C45.5871 3.16071 37.9565 0 30 0ZM44.9566 38.9684C44.8283 39.5459 44.5689 40.0861 44.1987 40.5474C43.2058 41.9067 41.9007 43.0073 40.3934 43.7566C39.7255 44.0938 38.9864 44.2657 38.2382 44.2579C37.299 44.2165 36.3739 44.0149 35.5026 43.6618C33.4681 42.9053 31.517 41.941 29.6803 40.7842C27.3418 39.3853 25.1723 37.7217 23.2145 35.8263C20.2021 32.8887 17.742 29.4338 15.9513 25.6263C15.656 24.9515 15.4016 24.2594 15.1895 23.5539C14.8738 22.5506 14.9645 21.4635 15.4421 20.5263C16.0095 19.3628 16.8327 18.3426 17.85 17.5421C18.4233 17.0061 19.0659 16.5494 19.7605 16.1842C20.1604 15.994 20.5801 15.8484 21.0118 15.75C21.5961 15.6355 22.0974 15.9355 22.5908 16.2316C23.3283 16.7276 23.9668 17.3568 24.4737 18.0868C25.389 19.3014 26.1699 20.6117 26.8026 21.9947C26.8844 22.171 26.953 22.3531 27.0079 22.5395C27.0714 22.731 27.0807 22.9363 27.0347 23.1328C26.9887 23.3293 26.8893 23.5092 26.7474 23.6526C26.5854 23.8271 26.4024 23.9809 26.2026 24.1105C25.5374 24.5525 24.8251 24.9192 24.0789 25.2039C23.8026 25.3066 23.5382 25.4289 23.2895 25.5553C22.8751 25.7571 22.5548 26.1115 22.3959 26.5441C22.2369 26.9768 22.2516 27.4542 22.4368 27.8763C22.9875 29.0368 23.7057 30.1101 24.5684 31.0618C26.6781 33.5114 29.2137 35.5588 32.0526 37.1053C32.4608 37.3294 32.935 37.4021 33.3916 37.3103C33.8481 37.2186 34.2575 36.9684 34.5474 36.604C34.6993 36.4424 34.8318 36.2635 34.9421 36.0711C35.3684 35.3092 35.7789 34.5355 36.2053 33.7737C36.3286 33.5551 36.4727 33.3489 36.6355 33.1579C36.8521 32.9164 37.1411 32.7517 37.4592 32.6883C37.7774 32.625 38.1074 32.6665 38.4 32.8066C39.3502 33.2843 40.2575 33.8429 41.1118 34.4763C42.2169 35.2346 43.2538 36.0878 44.2105 37.0263C44.3635 37.1833 44.5085 37.348 44.6447 37.5197C44.8075 37.7193 44.9201 37.955 44.973 38.2071C45.0259 38.4592 45.0176 38.7202 44.9487 38.9684H44.9566Z" fill="#7700FF"/>
</svg>
