<svg width="60" height="60" viewBox="0 0 60 60" fill="none" xmlns="http://www.w3.org/2000/svg">
<path d="M30 0C13.432 0 0 13.432 0 30C0 46.568 13.432 60 30 60C46.568 60 60 46.568 60 30C60 13.432 46.568 0 30 0ZM45.8203 39.2672C45.8181 40.0619 45.5015 40.8234 44.9396 41.3853C44.3777 41.9472 43.6162 42.2639 42.8215 42.266H17.1785C16.3838 42.2639 15.6223 41.9472 15.0604 41.3853C14.4985 40.8234 14.1819 40.0619 14.1797 39.2672V23.5922L29.993 31.4813L45.8203 23.7574V39.2672ZM45.8203 20.8008L30.007 28.5187L14.1797 20.625C14.2099 19.8498 14.5386 19.1163 15.097 18.5777C15.6554 18.0392 16.4004 17.7373 17.1762 17.7352H42.8215C43.616 17.7373 44.3773 18.0538 44.9392 18.6155C45.5011 19.1771 45.8178 19.9383 45.8203 20.7328V20.8008Z" fill="#7700FF"/>
</svg>
