<svg width="60" height="60" viewBox="0 0 60 60" fill="none" xmlns="http://www.w3.org/2000/svg">
<path d="M30 0C24.0666 0 18.2664 1.75947 13.3329 5.05591C8.39943 8.35235 4.55426 13.0377 2.28363 18.5195C0.0129986 24.0013 -0.581101 30.0333 0.576455 35.8527C1.73401 41.6721 4.59123 47.0176 8.78681 51.2132C12.9824 55.4088 18.3279 58.266 24.1473 59.4235C29.9667 60.5811 35.9987 59.987 41.4805 57.7164C46.9623 55.4457 51.6477 51.6006 54.9441 46.6671C58.2405 41.7336 60 35.9334 60 30C60 22.0435 56.8393 14.4129 51.2132 8.78679C45.5871 3.1607 37.9565 0 30 0ZM47.2909 41.7409C46.4182 41.8636 42.15 41.7409 41.9284 41.7409C40.825 41.7554 39.7604 41.334 38.9659 40.5682C38.0659 39.6989 37.2614 38.7443 36.3818 37.8409C36.1226 37.5636 35.841 37.3082 35.5398 37.0773C34.8375 36.5386 34.1421 36.6579 33.8114 37.4898C33.5532 38.385 33.373 39.3009 33.2727 40.2273C33.2148 41.0659 32.683 41.5909 31.7421 41.6489C31.1591 41.6795 30.5761 41.6932 30 41.6761C27.9001 41.6647 25.833 41.154 23.9693 40.1864C21.9522 39.0635 20.1946 37.5278 18.8114 35.6795C16.5375 32.775 14.7205 29.5841 13.0977 26.2943C13.0125 26.1273 11.3489 22.5886 11.308 22.4216C11.158 21.8659 11.308 21.3307 11.7682 21.1432C12.0614 21.0307 17.5432 21.1432 17.6352 21.1432C18.0431 21.1404 18.4412 21.2674 18.7721 21.5058C19.1031 21.7442 19.3496 22.0816 19.4761 22.4693C20.4904 25.0636 21.8777 27.496 23.5943 29.6898C23.8348 29.982 24.1161 30.238 24.4296 30.45C24.8761 30.7568 25.2989 30.6511 25.483 30.1329C25.7014 29.4188 25.8297 28.6801 25.8648 27.9341C25.8955 26.4545 25.8648 25.483 25.783 24.0034C25.7284 23.0557 25.3943 22.2273 23.9966 21.958C23.5671 21.8795 23.5296 21.525 23.8057 21.1705C24.3818 20.4375 25.1693 20.3182 26.0523 20.2739C27.3682 20.1989 28.6841 20.25 30 20.2739H30.2864C30.8591 20.2718 31.4304 20.33 31.9909 20.4477C32.3225 20.5154 32.6234 20.6883 32.8489 20.9408C33.0743 21.1933 33.2122 21.5117 33.2421 21.8489C33.3097 22.2221 33.3383 22.6015 33.3273 22.9807C33.2932 24.5932 33.2148 26.2091 33.1977 27.8216C33.1819 28.4614 33.2402 29.1009 33.3716 29.7273C33.5591 30.5864 34.1489 30.8011 34.7352 30.1807C35.4952 29.3804 36.1916 28.5221 36.8182 27.6136C37.9288 25.9578 38.844 24.1789 39.5455 22.3125C39.9273 21.3545 40.2273 21.1432 41.25 21.1432H47.0659C47.4117 21.1371 47.7565 21.1831 48.0886 21.2795C48.2062 21.3104 48.3161 21.3653 48.4115 21.4406C48.5069 21.516 48.5857 21.6102 48.643 21.7174C48.7003 21.8246 48.7348 21.9425 48.7444 22.0637C48.754 22.1848 48.7385 22.3067 48.6989 22.4216C48.4125 23.6966 47.7239 24.7841 46.9943 25.8307C45.8114 27.5045 44.5636 29.1375 43.3534 30.7909C43.2078 31.0047 43.0746 31.2266 42.9546 31.4557C42.4977 32.2807 42.5318 32.7409 43.1932 33.4227C44.25 34.5102 45.3784 35.5261 46.3977 36.6443C47.1454 37.4579 47.8206 38.3351 48.4159 39.2659C49.1421 40.4386 48.6818 41.5432 47.2909 41.7409Z" fill="#7700FF"/>
</svg>
