<svg width="144" height="144" viewBox="0 0 144 144" fill="none" xmlns="http://www.w3.org/2000/svg">
<g clip-path="url(#clip0_352_235)">
<g clip-path="url(#clip1_352_235)">
<path d="M133.794 20.2508C126.99 13.6067 117.589 10.2861 105.588 10.2861C102.267 10.2861 98.8774 10.862 95.4228 12.0131C91.9668 13.1651 88.7518 14.7193 85.7813 16.6746C82.8069 18.6293 80.2507 20.465 78.1063 22.1787C75.9644 23.8931 73.9281 25.7149 71.9999 27.6429C70.0708 25.7149 68.035 23.8931 65.8928 22.1787C63.7493 20.465 61.192 18.6304 58.2181 16.6746C55.2448 14.7185 52.0303 13.1654 48.5752 12.0131C45.1203 10.8623 41.7313 10.2861 38.4102 10.2861C26.4098 10.2861 17.0086 13.6076 10.2053 20.2508C3.40195 26.8934 0 36.1071 0 47.8927C0 51.4821 0.630459 55.1793 1.88884 58.9815C3.14723 62.7851 4.58124 66.0266 6.18807 68.7047C7.79462 71.3824 9.61647 73.9949 11.6522 76.5395C13.688 79.0844 15.1758 80.8373 16.1122 81.8025C17.0494 82.7656 17.7863 83.4628 18.3219 83.8906L68.4639 132.266C69.4285 133.231 70.6069 133.714 71.9996 133.714C73.3922 133.714 74.5715 133.231 75.5355 132.268L125.598 84.0527C137.866 71.786 143.999 59.7322 143.999 47.8927C144 36.1071 140.597 26.8934 133.794 20.2508Z" fill="#A059F1"/>
</g>
</g>
<defs>
<clipPath id="clip0_352_235">
<rect width="144" height="144" fill="white"/>
</clipPath>
<clipPath id="clip1_352_235">
<rect width="144" height="144" fill="white"/>
</clipPath>
</defs>
</svg>
